<svg width="1920" height="1184" viewBox="0 0 1920 1184" fill="none" xmlns="http://www.w3.org/2000/svg">
    <path d="M356.807 -900.762C356.807 -900.762 308.447 -650.098 403.947 -526.808C498.65 -404.513 485.16 -234.236 647.429 -254.071C876.47 -282.027 1029.1 -594.113 1229.02 -588.772C1456.11 -582.721 1425.48 -312.001 1582.05 -269.993C1690.6 -240.914 1803.78 -456.253 1999.84 -424.237C2014.17 -421.864 2047.64 -406.855 2091.69 -389.588C2210.85 -342.859 2286.13 -244.426 2352.28 -212.145C2372.49 -202.318 2393.15 -196.268 2414.74 -193.09C2540.77 -174.194 2580.26 -300.694 2681.65 -348.455C2758.06 -384.458 2896.97 -423.08 2984.73 -381.805C3003.44 -373.029 3010.6 -359.659 3010.03 -346.8C3007.76 -297.577 2891.78 -167.466 2974.25 -100.501" stroke="white" stroke-opacity="0.08" stroke-miterlimit="10"/>
    <path d="M343.968 -873.154C343.968 -873.154 296.914 -624.433 390.724 -500.144C483.647 -376.933 471.821 -207.069 632.185 -227.733C861.088 -257.279 1012.73 -561.206 1210.82 -555.306C1434.61 -548.566 1407.39 -283.963 1564.06 -243.332C1672.92 -215.089 1784.2 -429.318 1982.91 -398.736C1997.72 -396.452 2031.33 -381.724 2075.28 -364.933C2196.07 -318.754 2268.82 -219.595 2335.9 -186.582C2356.04 -176.683 2376.78 -170.637 2398.5 -167.396C2524.45 -148.428 2563.68 -275.054 2665.58 -323.814C2741.76 -360.306 2879.68 -399.297 2969.3 -358.358C2988.06 -349.791 2995.68 -336.801 2995.61 -324.101C2995.29 -276.145 2883.36 -143.976 2966.12 -76.6801" stroke="white" stroke-opacity="0.08" stroke-miterlimit="10"/>
    <path d="M331.193 -845.548C331.193 -845.548 285.516 -598.757 377.569 -473.432C468.728 -349.321 458.62 -179.806 616.936 -201.412C845.703 -232.548 996.387 -528.386 1192.55 -521.838C1413.04 -514.476 1389.3 -255.907 1545.97 -216.684C1655.16 -189.295 1764.54 -402.311 1965.9 -373.181C1981.27 -370.989 2014.85 -356.603 2058.79 -340.24C2181.25 -294.613 2251.38 -194.656 2319.46 -160.998C2339.53 -151.097 2360.26 -144.982 2382.2 -141.681C2508.08 -122.642 2547.03 -249.462 2649.43 -299.205C2725.39 -336.099 2862.39 -375.394 2953.87 -335.032C2972.69 -326.742 2980.8 -313.979 2981.26 -301.507C2982.99 -254.754 2875.03 -120.541 2958.07 -53.0342" stroke="white" stroke-opacity="0.08" stroke-miterlimit="10"/>
    <path d="M318.352 -817.94C318.352 -817.94 273.985 -573.007 364.326 -446.768C453.723 -321.741 445.261 -152.656 601.654 -175.089C830.35 -207.887 979.993 -495.565 1174.31 -488.388C1391.48 -480.387 1371.17 -227.953 1527.93 -189.969C1637.42 -163.485 1744.9 -375.391 1948.9 -347.677C1964.75 -345.506 1998.45 -331.485 2042.31 -315.582C2166.4 -270.505 2234 -169.754 2303.01 -135.433C2323.02 -125.46 2343.82 -119.348 2365.9 -115.984C2491.71 -96.8736 2530.38 -223.819 2633.28 -274.63C2709.02 -311.995 2845.03 -351.608 2938.36 -311.668C2957.24 -303.587 2965.81 -291.187 2966.75 -278.89C2970.43 -233.387 2866.44 -97.0615 2949.85 -29.2957" stroke="white" stroke-opacity="0.08" stroke-miterlimit="10"/>
    <path d="M305.58 -790.335C305.58 -790.335 262.59 -547.331 351.17 -420.124C438.872 -294.201 432.057 -125.513 586.39 -148.768C814.946 -183.223 963.569 -462.656 1156.02 -454.851C1369.9 -446.16 1353 -199.826 1509.83 -163.234C1619.63 -137.605 1725.22 -348.451 1931.94 -322.106C1948.26 -320.024 1982.1 -306.353 2025.87 -290.875C2151.61 -246.434 2216.68 -144.854 2286.55 -109.763C2306.47 -99.7872 2327.37 -93.5417 2349.51 -90.1808C2475.33 -71.0016 2513.65 -198.07 2617.06 -249.88C2692.57 -287.664 2827.52 -327.558 2922.78 -288.199C2941.72 -280.343 2950.69 -268.303 2952.26 -256.153C2957.82 -211.915 2857.95 -73.5345 2941.65 -5.5063" stroke="white" stroke-opacity="0.08" stroke-miterlimit="10"/>
    <path d="M292.739 -762.727C292.739 -762.727 251.04 -521.648 337.945 -393.478C423.884 -266.639 418.699 -98.3806 571.143 -122.447C799.628 -158.581 947.193 -429.835 1137.82 -421.403C1348.39 -412.09 1334.99 -171.808 1491.82 -136.589C1601.99 -111.817 1705.62 -321.601 1914.99 -296.622C1931.88 -294.632 1965.76 -281.306 2009.44 -266.236C2136.81 -222.415 2199.28 -119.968 2270.16 -84.2169C2290.01 -74.1693 2310.91 -67.9238 2333.26 -64.5032C2459.01 -45.2526 2497.03 -172.445 2600.98 -225.326C2676.25 -263.579 2810.24 -303.776 2907.41 -264.841C2926.4 -257.262 2935.87 -245.449 2937.9 -233.542C2945.37 -190.569 2849.6 -50.0819 2933.66 18.2057" stroke="white" stroke-opacity="0.08" stroke-miterlimit="10"/>
    <path d="M279.968 -735.053C279.968 -735.053 239.645 -495.904 324.708 -366.677C408.883 -238.939 405.428 -71.1661 555.813 -96.0364C784.158 -133.829 930.75 -396.925 1119.46 -387.863C1326.73 -377.911 1316.74 -143.746 1473.61 -109.781C1584.08 -85.9139 1685.74 -294.584 1897.83 -270.974C1915.19 -269.005 1949.21 -256.028 1992.79 -241.451C2121.93 -198.34 2181.81 -95.0794 2253.6 -58.6812C2273.39 -48.6306 2294.36 -42.3195 2316.85 -38.8363C2442.54 -19.4286 2480.28 -146.832 2584.81 -200.698C2659.85 -239.354 2792.85 -279.8 2891.88 -241.425C2910.94 -234.054 2920.8 -222.602 2923.44 -210.858C2932.79 -169.149 2841.08 -26.605 2925.49 41.942" stroke="white" stroke-opacity="0.08" stroke-miterlimit="10"/>
    <path d="M267.128 -707.462C267.128 -707.462 228.129 -470.257 311.5 -340.048C393.916 -211.325 392.103 -44.052 540.514 -69.7473C768.717 -109.267 914.356 -364.138 1101.19 -354.429C1305.23 -343.858 1298.67 -115.794 1455.61 -83.1709C1566.39 -60.1576 1666.15 -267.838 1880.89 -245.576C1898.82 -243.7 1932.88 -231.084 1976.45 -216.903C2107.17 -174.339 2164.51 -70.2149 2237.25 -33.0847C2256.97 -22.9627 2277.93 -16.6516 2300.57 -13.1057C2426.19 6.28779 2463.65 -121.156 2568.68 -176.09C2643.5 -215.233 2775.44 -255.892 2876.39 -218.096C2895.43 -210.931 2905.76 -199.858 2908.96 -188.259C2920.13 -147.863 2832.61 -3.14723 2917.31 65.6621" stroke="white" stroke-opacity="0.08" stroke-miterlimit="10"/>
    <path d="M254.355 -679.857C254.355 -679.857 216.715 -444.58 298.326 -313.386C378.961 -183.764 378.862 -16.9587 525.302 -43.4106C753.434 -84.5915 898.032 -331.302 1082.97 -320.963C1283.62 -309.767 1280.56 -87.7552 1437.51 -56.5049C1548.61 -34.3976 1646.48 -241.036 1863.86 -220.071C1882.27 -218.284 1916.44 -206.017 1959.93 -192.26C2092.35 -150.387 2147.09 -45.3967 2220.77 -7.46599C2240.49 2.5875 2261.46 9.03558 2284.3 12.5727C2409.86 32.0548 2447.03 -95.5309 2552.57 -151.533C2627.16 -191.079 2758.12 -231.987 2860.91 -194.751C2880.02 -187.794 2890.75 -177.082 2894.57 -165.663C2907.55 -126.529 2824.23 20.3069 2909.2 89.3101" stroke="white" stroke-opacity="0.08" stroke-miterlimit="10"/>
    <path d="M241.513 -652.249C241.513 -652.249 205.181 -418.898 285.104 -286.672C363.976 -156.133 365.537 10.1722 510.003 -17.0876C737.989 -60.064 881.534 -298.476 1064.7 -287.495C1262.06 -275.661 1262.4 -59.6971 1419.43 -29.7715C1530.84 -8.51807 1626.65 -214.159 1846.85 -194.499C1865.73 -192.8 1900.05 -180.882 1943.43 -167.533C2077.56 -126.368 2129.7 -20.4946 2204.37 18.0802C2223.96 28.2081 2245 34.7389 2267.98 38.3215C2393.54 57.9406 2430.35 -69.8353 2536.41 -126.821C2610.78 -166.769 2740.7 -207.907 2845.47 -171.322C2864.63 -164.642 2875.77 -154.222 2880.15 -142.964C2894.87 -105.157 2815.79 43.78 2901.07 113.13" stroke="white" stroke-opacity="0.08" stroke-miterlimit="10"/>
    <path d="M228.741 -624.644C228.741 -624.644 193.785 -393.222 271.947 -260.028C349.124 -128.594 352.309 37.1621 494.79 9.23205C722.702 -35.4742 865.226 -265.657 1046.46 -254.045C1240.59 -241.593 1244.34 -31.6602 1401.39 -3.1248C1513.12 17.2226 1607.02 -187.376 1829.85 -168.995C1849.28 -167.406 1883.65 -155.816 1926.97 -142.893C2062.72 -102.415 2112.33 4.39006 2187.88 43.6997C2207.46 53.8961 2228.51 60.4269 2251.62 64.0722C2377.12 83.6942 2413.65 -44.1385 2520.21 -102.261C2594.36 -142.68 2723.22 -183.996 2829.91 -147.956C2849.13 -141.484 2860.66 -131.441 2865.65 -120.347C2882.07 -83.7964 2807.23 67.2586 2892.87 136.8" stroke="white" stroke-opacity="0.08" stroke-miterlimit="10"/>
    <path d="M215.897 -597.036C215.897 -597.036 182.321 -367.475 258.72 -233.365C334.134 -101.014 338.98 64.2417 479.489 35.5551C707.256 -10.9466 848.813 -232.835 1028.21 -220.595C1218.94 -207.586 1226.19 -3.77397 1383.32 23.5053C1495.35 42.9303 1587.3 -160.676 1812.85 -143.526C1832.77 -142.026 1867.26 -130.871 1910.48 -118.286C2047.94 -78.4991 2094.96 29.1716 2171.42 69.1969C2190.94 79.3962 2211.99 85.9954 2235.33 89.7169C2360.77 109.479 2397.09 -18.4822 2504.08 -77.6696C2578 -118.508 2705.88 -159.971 2814.43 -124.645C2833.71 -118.399 2845.66 -108.7 2851.19 -97.7657C2869.29 -62.5225 2798.77 90.6298 2884.79 160.498" stroke="white" stroke-opacity="0.08" stroke-miterlimit="10"/>
    <path d="M203.128 -569.362C203.128 -569.362 170.859 -341.727 245.552 -206.583C319.203 -73.334 325.759 91.3855 464.279 61.9431C691.884 13.6467 832.491 -199.948 1009.97 -187.06C1197.41 -173.412 1208.14 24.3484 1365.23 50.3081C1477.64 68.8934 1567.47 -133.73 1795.81 -117.883C1816.22 -116.473 1850.81 -105.665 1893.96 -93.4899C2033.06 -54.4073 2077.48 54.1468 2154.95 94.901C2174.4 105.103 2195.52 111.837 2219 115.484C2344.43 135.246 2380.41 7.16238 2487.99 -53.0113C2561.67 -94.2516 2688.52 -135.876 2799.04 -101.201C2818.38 -95.1632 2830.66 -85.7699 2836.88 -75.0712C2856.6 -41.0123 2790.48 114.166 2876.77 184.228" stroke="white" stroke-opacity="0.08" stroke-miterlimit="10"/>
    <path d="M190.287 -541.754C190.287 -541.754 159.394 -316.065 232.328 -179.919C304.216 -45.754 312.413 118.398 448.965 88.2844C676.493 38.1896 816.064 -167.107 991.703 -153.591C1175.9 -139.394 1189.99 52.3206 1347.14 76.9734C1459.86 94.6364 1547.73 -106.993 1778.79 -92.4301C1799.73 -91.1112 1834.4 -80.6496 1877.46 -68.8994C2018.27 -30.5766 2060.07 78.913 2138.48 120.382C2157.87 130.656 2179.06 137.386 2202.61 141.099C2328.05 160.998 2363.81 32.8548 2471.83 -28.3841C2545.29 -70.0267 2671.08 -111.829 2783.53 -77.7851C2802.93 -71.9563 2815.54 -62.9201 2822.37 -52.3848C2843.7 -19.5787 2781.98 137.642 2868.56 208.035" stroke="white" stroke-opacity="0.08" stroke-miterlimit="10"/>
    <path d="M177.515 -514.149C177.515 -514.149 147.93 -290.386 219.171 -153.276C289.364 -18.2146 299.182 145.319 433.786 114.585C661.183 62.6258 799.701 -134.373 973.502 -120.092C1154.4 -105.273 1171.97 80.3388 1329.13 103.67C1442.15 120.428 1528.05 -80.2259 1761.91 -66.8975C1783.35 -65.6684 1818.14 -55.5552 1861.09 -44.2809C2003.61 -6.73414 2042.82 103.707 2122.16 145.908C2141.47 156.185 2162.66 162.984 2186.42 166.756C2311.73 186.798 2347.13 58.5336 2455.74 -3.77727C2529.04 -45.825 2653.73 -87.7172 2768.07 -54.4407C2787.54 -48.7518 2800.54 -40.0758 2807.99 -29.8416C2830.93 1.78024 2773.54 161.047 2860.47 231.7" stroke="white" stroke-opacity="0.08" stroke-miterlimit="10"/>
    <path d="M164.673 -486.541C164.673 -486.541 136.464 -264.707 205.948 -126.561C274.361 9.41724 285.836 172.382 418.452 140.91C645.697 87.0008 783.272 -101.55 955.196 -86.6221C1132.78 -71.2502 1153.77 108.313 1311.04 130.387C1424.38 146.29 1508.23 -53.4347 1744.88 -41.3411C1766.79 -40.201 1801.7 -30.5219 1844.57 -19.5872C1988.79 17.2005 2025.47 128.59 2105.68 171.51C2124.92 181.789 2146.19 188.654 2170.08 192.489C2295.33 212.602 2330.52 84.2094 2439.56 20.8504C2512.64 -21.6167 2636.27 -63.6699 2752.61 -31.0277C2772.07 -25.5444 2785.48 -17.2463 2793.55 -7.17553C2818.1 23.2792 2765.09 184.555 2852.32 255.418" stroke="white" stroke-opacity="0.08" stroke-miterlimit="10"/>
    <path d="M151.901 -458.936C151.901 -458.936 125.051 -239.031 192.775 -99.8998C259.425 36.9775 272.539 199.341 403.258 167.246C630.286 111.476 766.948 -68.7138 936.977 -53.1562C1111.17 -37.2105 1135.68 136.3 1293.01 157.05C1406.65 172.031 1488.53 -26.7008 1727.9 -15.8383C1750.37 -14.7909 1785.34 -5.4572 1828.19 5.0664C1974.1 41.0094 2008.2 153.488 2089.33 197.123C2108.52 207.474 2129.78 214.407 2153.89 218.233C2278.92 238.355 2313.9 109.885 2423.38 45.4096C2496.24 2.54015 2618.82 -39.6054 2737.07 -7.74818C2756.58 -2.47329 2770.33 5.53609 2779.07 15.3721C2805.17 44.6454 2756.61 207.893 2844.2 279.084" stroke="white" stroke-opacity="0.08" stroke-miterlimit="10"/>
    <path d="M139.06 -431.328C139.06 -431.328 113.535 -213.349 179.55 -73.2533C244.437 64.54 259.257 226.264 387.942 193.57C614.87 135.865 750.517 -35.9591 918.705 -19.688C1089.67 -3.12367 1117.57 164.356 1274.93 183.715C1388.88 197.791 1468.72 -0.0303003 1710.89 9.68306C1733.83 10.573 1768.92 19.5583 1811.69 29.7252C1959.3 64.8407 1990.8 178.322 2072.8 222.692C2091.98 233.043 2113.25 239.976 2137.5 243.934C2262.66 263.844 2297.31 135.595 2407.29 70.0508C2479.92 26.7791 2601.46 -15.3904 2721.63 15.6812C2741.2 20.7476 2755.28 28.4684 2764.64 38.0546C2792.29 66.2151 2748.19 231.434 2836.07 302.819" stroke="white" stroke-opacity="0.08" stroke-miterlimit="10"/>
    <path d="M126.29 -403.654C126.29 -403.654 102.124 -187.604 166.399 -46.4554C229.591 92.2512 245.981 253.342 372.766 219.957C599.543 160.319 734.226 -3.14143 900.505 13.829C1068.18 30.9456 1099.5 192.377 1256.94 210.497C1371.26 223.647 1449 26.8253 1693.96 35.3039C1717.39 36.1049 1752.61 44.7239 1795.29 54.4997C1944.6 88.7706 1973.52 203.203 2056.45 248.357C2075.56 258.711 2096.9 265.71 2121.22 269.733C2246.31 289.646 2280.68 161.34 2391.16 94.6766C2463.64 50.9997 2584.06 8.79223 2706.2 39.0417C2725.84 43.8996 2740.26 51.3309 2750.3 60.6824C2779.5 87.8157 2739.79 254.838 2828.02 326.568" stroke="white" stroke-opacity="0.08" stroke-miterlimit="10"/>
    <path d="M113.535 -376.049C113.535 -376.049 90.7616 -161.946 153.26 -19.8125C214.691 119.861 232.716 280.265 357.519 246.278C584.073 184.625 717.881 29.6096 882.302 47.2771C1046.67 64.8782 1081.49 220.274 1238.85 237.128C1353.48 249.373 1429.17 53.4624 1676.94 60.7055C1700.91 61.4145 1736.18 69.6195 1778.79 79.0386C1929.72 112.485 1956.04 227.989 2039.98 273.872C2059.03 284.298 2080.35 291.366 2104.89 295.379C2229.93 315.501 2264.07 187.067 2375.02 119.337C2447.28 75.2408 2566.66 33.0259 2690.71 62.4904C2710.43 67.2077 2725.09 74.2683 2735.81 83.385C2766.56 109.474 2731.31 278.399 2819.82 350.305" stroke="white" stroke-opacity="0.08" stroke-miterlimit="10"/>
    <path d="M100.675 -348.441C100.675 -348.441 79.2097 -136.264 140.016 6.83437C199.685 147.424 219.344 307.123 342.253 272.599C568.65 208.877 701.414 62.3654 863.995 80.7464C1025.04 98.9185 1063.27 248.249 1220.74 263.794C1335.68 275.116 1409.34 80.2019 1659.89 86.2281C1684.35 86.8474 1719.73 94.6362 1762.25 103.716C1914.97 136.245 1938.68 252.77 2023.48 299.372C2042.46 309.8 2063.85 316.933 2088.53 321.01C2213.58 341.269 2247.44 212.709 2358.89 143.911C2430.92 99.4124 2549.26 57.1736 2675.21 85.7846C2694.99 90.2764 2709.99 97.134 2721.4 105.947C2753.7 131.008 2722.9 301.819 2811.7 373.988" stroke="white" stroke-opacity="0.08" stroke-miterlimit="10"/>
    <path d="M87.9207 -320.836C87.9207 -320.836 67.8144 -110.588 126.86 33.4952C184.817 174.982 206.046 334.064 327.008 298.937C553.25 233.214 685.07 95.1337 845.81 114.211C1003.55 132.936 1045.28 276.232 1202.74 290.524C1317.93 300.944 1389.46 106.944 1642.88 111.801C1667.82 112.263 1703.33 119.702 1745.77 128.425C1900.25 160.124 1921.37 277.652 2007.04 325.057C2025.95 335.489 2047.35 342.691 2072.24 346.826C2197.21 367.02 2230.79 238.472 2342.75 168.554C2414.61 123.651 2531.85 81.4594 2659.78 109.214C2679.61 113.497 2694.94 120.066 2706.97 128.629C2740.9 152.712 2714.47 325.276 2803.64 397.72" stroke="white" stroke-opacity="0.08" stroke-miterlimit="10"/>
    <path d="M75.0626 -293.227C75.0626 -293.227 56.6207 -84.9889 113.638 60.2101C170.1 202.464 192.695 360.991 311.674 325.245C537.691 257.455 668.621 127.872 827.453 147.666C981.886 166.944 1027.03 304.191 1184.59 317.175C1300.15 326.669 1369.64 133.597 1625.86 137.288C1651.36 137.657 1686.91 144.735 1729.26 153.067C1885.44 183.784 1903.9 302.473 1990.57 350.607C2009.42 361.109 2030.89 368.308 2055.91 372.507C2180.82 392.84 2214.2 264.165 2326.59 193.181C2398.23 147.876 2514.42 105.712 2644.27 132.646C2664.09 136.793 2679.84 143.052 2692.55 151.329C2728.03 174.436 2705.98 348.837 2795.51 421.541" stroke="white" stroke-opacity="0.08" stroke-miterlimit="10"/>
    <path d="M62.2892 -265.622C62.2892 -265.622 45.2065 -59.3121 100.464 86.8715C155.163 230.025 179.394 387.881 296.478 351.581C522.266 281.639 652.31 160.639 809.284 181.129C960.344 200.981 1008.97 332.245 1166.55 343.89C1282.41 352.462 1349.86 160.318 1608.87 162.843C1634.84 163.123 1670.53 169.783 1712.8 177.758C1870.67 207.58 1886.61 327.268 1974.13 376.19C1992.97 386.692 2014.38 394.031 2039.54 398.241C2164.45 418.575 2197.55 289.91 2310.44 217.722C2381.93 172.063 2496.94 129.898 2628.75 155.907C2648.64 159.845 2664.72 165.885 2678.03 173.861C2715.14 196.006 2697.47 372.159 2787.29 445.125" stroke="white" stroke-opacity="0.08" stroke-miterlimit="10"/>
    <path d="M49.4506 -237.946C49.4506 -237.946 33.6921 -33.5796 87.1725 113.589C140.18 257.724 165.902 414.744 281.096 377.976C506.656 305.899 635.813 193.465 790.88 214.723C938.748 234.986 990.762 360.271 1148.42 370.677C1264.67 378.34 1329.93 187.113 1591.87 188.484C1618.32 188.606 1654.13 194.918 1696.32 202.553C1855.88 231.393 1869.23 352.239 1957.7 401.892C1976.48 412.397 1997.96 419.802 2023.28 424.074C2148.12 444.41 2180.99 315.687 2294.33 242.364C2365.59 196.302 2479.58 154.181 2613.36 179.335C2633.31 183.064 2649.72 188.883 2663.73 196.538C2702.46 217.774 2689.17 395.678 2779.28 468.923" stroke="white" stroke-opacity="0.08" stroke-miterlimit="10"/>
    <path d="M36.678 -210.358C36.678 -210.358 22.2812 -7.8514 74.0017 140.302C125.246 285.336 152.621 441.668 265.883 404.279C491.211 329.998 619.482 226.129 772.729 248.169C917.289 268.916 972.785 388.167 1130.39 397.323C1246.95 404.064 1310.1 213.768 1574.91 213.9C1601.83 213.934 1637.78 219.811 1679.93 227.104C1841.18 254.979 1851.96 376.965 1941.35 427.333C1960.07 437.91 1981.61 445.312 2007.07 449.578C2131.79 470.194 2164.38 341.346 2278.16 266.975C2349.26 220.508 2462.14 178.503 2597.82 202.666C2617.83 206.255 2634.57 211.785 2649.2 219.139C2689.62 239.479 2680.65 419.138 2771.11 492.626" stroke="white" stroke-opacity="0.08" stroke-miterlimit="10"/>
    <path d="M23.8365 -182.749C23.8365 -182.749 10.7478 17.8309 60.7762 166.949C110.257 312.899 139.178 468.461 250.568 430.603C475.578 354.105 603.048 258.816 754.371 281.624C895.64 302.855 954.537 416.144 1112.22 423.975C1229.1 429.81 1290.2 240.425 1557.8 239.391C1585.27 239.264 1621.26 244.797 1663.36 251.749C1826.37 278.64 1834.55 401.714 1924.82 452.886C1943.46 463.466 1965.01 470.936 1990.68 475.262C2115.4 495.878 2147.78 367.038 2262.01 291.533C2332.89 244.664 2444.73 202.754 2582.32 226.029C2602.39 229.41 2619.56 234.699 2634.77 241.754C2676.75 261.186 2672.16 442.545 2762.97 516.292" stroke="white" stroke-opacity="0.08" stroke-miterlimit="10"/>
    <path d="M11.0628 -155.144C11.0628 -155.144 -0.649501 43.5065 47.6183 193.592C95.3189 340.442 125.889 495.247 235.371 456.921C460.078 378.155 586.732 291.497 736.219 315.087C874.161 336.803 936.562 444.108 1094.26 450.686C1211.43 455.599 1270.42 267.145 1540.89 264.959C1568.86 264.743 1604.96 269.858 1646.96 276.454C1811.59 302.315 1817.18 426.53 1908.38 478.486C1926.95 489.068 1948.57 496.673 1974.38 500.992C2099.03 521.749 2131.21 392.849 2245.87 316.227C2316.6 269.004 2427.32 227.228 2566.81 249.444C2586.94 252.685 2604.44 257.686 2620.28 264.439C2664.04 282.903 2663.73 466.07 2754.84 540.027" stroke="white" stroke-opacity="0.08" stroke-miterlimit="10"/>
    <path d="M-1.77837 -127.536C-1.77837 -127.536 -12.1143 69.1855 34.3966 220.324C80.42 368.086 112.468 522.125 220.056 483.262C444.46 402.209 570.316 324.199 717.879 348.558C852.583 370.773 918.328 472.032 1076.13 477.354C1193.6 481.361 1250.49 293.752 1523.83 290.466C1552.27 290.16 1588.51 294.841 1630.42 301.115C1796.81 325.922 1799.89 451.376 1891.95 504.119C1910.52 514.702 1932.15 522.306 1958.09 526.757C2082.68 547.516 2114.65 418.643 2229.74 340.87C2300.25 293.245 2409.93 251.582 2551.41 272.872C2571.6 275.887 2589.43 280.685 2605.95 287.117C2651.34 304.739 2655.34 489.541 2746.74 563.829" stroke="white" stroke-opacity="0.08" stroke-miterlimit="10"/>
    <path d="M-14.551 -99.931C-14.551 -99.931 -23.5791 94.8645 21.2397 246.968C65.4825 395.63 99.0941 548.915 204.876 509.564C428.974 426.173 554.002 356.863 699.744 381.986C831.139 404.685 900.387 499.961 1058.19 504.047C1175.97 507.063 1230.74 320.454 1506.95 315.999C1535.95 315.532 1572.22 319.799 1614.06 325.716C1782.14 349.473 1782.62 476.154 1875.64 529.628C1894.15 540.282 1915.77 547.972 1941.86 552.4C2066.29 573.303 2098.06 444.369 2213.67 365.459C2284.02 317.429 2392.68 275.947 2535.96 296.181C2556.22 299.057 2574.39 303.565 2591.51 309.629C2638.59 326.355 2646.9 512.911 2738.59 587.462" stroke="white" stroke-opacity="0.08" stroke-miterlimit="10"/>
    <path d="M-27.3889 -72.2545C-27.3889 -72.2545 -35.0379 120.68 8.00099 273.701C50.4839 423.347 85.6728 575.793 189.547 535.974C413.27 450.231 537.571 389.635 681.391 415.544C809.457 438.659 882.14 527.972 1040.04 530.801C1158.11 532.895 1210.79 347.216 1489.85 341.609C1519.33 341.036 1555.72 344.904 1597.47 350.464C1767.32 373.116 1765.22 501.005 1859.09 555.266C1877.53 565.924 1899.16 573.682 1925.45 578.17C2049.96 599.07 2081.45 470.148 2197.49 390.052C2267.6 341.689 2375.24 300.319 2520.44 319.58C2540.75 322.247 2559.33 326.515 2577.06 332.278C2625.84 348.159 2638.4 536.405 2730.44 611.163" stroke="white" stroke-opacity="0.08" stroke-miterlimit="10"/>
    <path d="M-40.1614 -44.6491C-40.1614 -44.6491 -46.5035 146.343 -5.153 300.413C35.5664 450.958 72.2992 602.583 174.352 562.293C397.697 474.147 521.323 422.245 663.222 448.991C787.976 472.522 864.077 555.855 1021.99 557.431C1140.39 558.619 1190.86 373.789 1472.87 367.078C1502.82 366.348 1539.34 369.867 1581 375.087C1752.47 396.692 1747.85 525.804 1842.66 580.797C1861.03 591.457 1882.74 599.35 1909.17 603.832C2033.61 624.889 2064.89 495.822 2181.36 414.661C2251.32 365.875 2357.85 324.759 2505.01 342.975C2525.39 345.502 2544.3 349.55 2562.65 354.943C2613.2 369.925 2630 559.86 2722.32 634.949" stroke="white" stroke-opacity="0.08" stroke-miterlimit="10"/>
    <path d="M-53.0031 -17.0408C-53.0031 -17.0408 -57.9688 172.022 -18.3789 327.059C20.6462 478.518 58.8705 629.307 159.017 588.601C381.914 497.968 504.868 454.846 644.864 482.445C766.464 506.455 845.914 583.828 1003.9 584.148C1122.66 584.342 1170.96 400.498 1455.84 392.566C1486.28 391.746 1522.91 394.831 1564.5 399.712C1737.72 420.195 1730.52 550.533 1826.2 606.381C1844.48 617.045 1866.21 625.005 1892.85 629.547C2017.22 650.675 2048.3 521.617 2165.2 439.254C2235.01 390.131 2340.43 349.131 2489.5 366.287C2509.94 368.606 2529.25 372.431 2548.21 377.523C2600.45 391.661 2621.54 583.3 2714.24 658.562" stroke="white" stroke-opacity="0.08" stroke-miterlimit="10"/>
    <path d="M-65.7767 10.5641C-65.7767 10.5641 -69.4517 197.701 -31.536 353.72C5.72563 506.077 45.5107 656.045 143.839 614.936C366.286 521.835 488.636 487.455 626.729 515.908C744.932 540.337 827.818 611.797 985.831 610.812C1104.92 610.101 1151.09 427.171 1438.84 418.069C1469.82 417.089 1506.51 419.76 1548.01 424.37C1722.92 443.751 1713.2 575.363 1809.75 631.947C1828.04 642.679 1849.76 650.639 1876.47 655.247C2000.78 676.446 2031.72 547.394 2149 463.899C2218.59 414.375 2322.97 373.624 2473.94 389.722C2494.44 391.9 2514.17 395.433 2533.66 400.211C2587.67 413.45 2613 606.76 2705.99 682.371" stroke="white" stroke-opacity="0.08" stroke-miterlimit="10"/>
    <path d="M-78.6178 38.1722C-78.6178 38.1722 -80.9167 223.38 -44.7586 380.435C-9.27694 533.709 32.017 682.84 128.523 641.259C350.501 545.605 472.213 520.003 608.391 549.43C723.435 574.217 809.656 639.77 967.752 637.529C1087.14 635.895 1131.14 453.83 1421.88 443.64C1453.35 442.501 1490.16 444.824 1531.56 449.078C1708.16 467.272 1695.87 600.178 1793.34 657.562C1811.56 668.298 1833.36 676.323 1860.21 680.993C1984.52 702.262 2015.18 573.153 2132.9 488.541C2202.39 438.608 2305.69 398.11 2458.53 413.081C2479.09 415.12 2499.15 418.346 2519.34 422.838C2575.13 435.228 2604.62 630.248 2697.96 706.118" stroke="white" stroke-opacity="0.08" stroke-miterlimit="10"/>
    <path d="M-91.3909 65.7772C-91.3909 65.7772 -92.3134 249.056 -57.9323 407.096C-24.2142 561.269 18.572 709.581 113.259 667.598C334.73 569.323 455.896 552.633 590.171 582.913C701.955 608.114 791.61 667.686 949.725 664.277C1069.42 661.669 1111.31 480.518 1404.92 469.228C1436.87 468 1473.8 469.888 1515.2 473.816C1693.41 490.826 1678.6 625.023 1776.93 683.195C1795.08 693.933 1816.88 702.096 1843.94 706.774C1968.12 728.048 1998.62 598.946 2116.79 513.2C2186.06 462.916 2288.33 422.686 2443.08 436.545C2463.7 438.375 2484.16 441.379 2504.88 445.556C2562.43 457.047 2596.17 653.825 2689.79 729.889" stroke="white" stroke-opacity="0.08" stroke-miterlimit="10"/>
    <path d="M-104.229 93.454C-104.229 93.454 -103.84 274.875 -71.1543 433.811C-39.1274 588.966 5.07903 736.377 98.0144 693.971C318.928 593.094 439.579 585.228 571.902 616.416C680.44 641.961 773.436 695.368 931.645 690.96C1051.63 687.224 1091.36 507.212 1387.9 494.749C1420.33 493.364 1457.39 494.835 1498.72 498.474C1678.6 514.177 1661.28 649.717 1760.48 708.692C1778.57 719.434 1800.44 727.662 1827.65 732.402C1951.77 753.816 1982.06 624.654 2100.66 537.774C2169.78 487.085 2271.01 447.105 2427.65 459.837C2448.33 461.527 2469.22 464.307 2490.54 468.115C2549.86 478.759 2587.83 677.157 2681.74 753.5" stroke="white" stroke-opacity="0.08" stroke-miterlimit="10"/>
    <path d="M-117.001 121.059C-117.001 121.059 -115.237 300.534 -84.3082 460.523C-54.0449 616.577 -8.346 763.169 82.7673 720.292C303.086 616.729 423.29 617.702 553.7 649.881C658.995 675.84 755.362 723.405 913.581 717.624C1033.87 712.966 1071.4 533.82 1370.89 520.271C1403.79 518.796 1440.9 519.853 1482.2 523.151C1663.78 537.666 1644.07 674.355 1744.02 734.328C1762.1 745.069 1783.91 753.368 1811.33 758.168C1935.45 779.651 1965.54 650.498 2084.57 562.364C2153.47 511.341 2253.66 471.68 2412.14 483.218C2432.88 484.768 2454.1 487.259 2476.04 490.749C2537.2 500.559 2579.35 700.65 2673.61 777.252" stroke="white" stroke-opacity="0.08" stroke-miterlimit="10"/>
    <path d="M-129.842 148.667C-129.842 148.667 -126.771 326.216 -97.5503 487.188C-69.0498 644.158 -21.8784 789.863 67.4864 746.631C287.207 640.314 406.954 650.264 535.394 683.35C637.443 709.654 737.234 751.394 895.468 744.359C1016.07 738.864 1051.46 559.947 1353.84 545.776C1387.3 544.072 1424.45 544.767 1465.68 547.793C1648.95 561.121 1626.67 699.241 1727.54 759.878C1745.56 770.69 1767.43 778.987 1794.92 783.784C1918.98 805.407 1949 676.325 2068.32 586.995C2137.21 535.698 2236.29 496.221 2396.66 506.632C2417.47 507.956 2439.09 510.224 2461.65 513.43C2524.57 522.324 2570.87 724.125 2665.51 800.969" stroke="white" stroke-opacity="0.08" stroke-miterlimit="10"/>
    <path d="M-142.615 176.273C-142.615 176.273 -125.224 861.352 52.2394 772.953C442.354 578.676 516.43 790.168 877.455 771.005C1011.8 763.876 1037.88 545.599 1449.24 572.432C1666.75 586.597 1593.96 777.235 1778.66 809.514C1982.85 845.198 1931.53 472.04 2447.19 536.046C2511.94 544.107 2562.42 747.599 2657.34 824.706" stroke="white" stroke-opacity="0.08" stroke-miterlimit="10"/>
</svg>